<?xml version="1.0" encoding="utf-8"?>
<!-- Generator: Adobe Illustrator 25.0.1, SVG Export Plug-In . SVG Version: 6.00 Build 0)  -->
<svg version="1.1" id="Layer_1" xmlns="http://www.w3.org/2000/svg" xmlns:xlink="http://www.w3.org/1999/xlink" x="0px" y="0px"
	 viewBox="0 0 140 140" enable-background="new 0 0 140 140" xml:space="preserve">
<path id="Path_9_1_" fill="#828FA7" d="M70.7,0c31.7,0.3,59.2,21.8,67.1,52.5c7.9,30.7-5.7,62.8-33.3,78.4
	c-27.5,15.6-62.1,10.8-84.4-11.8l18-17.4c14.3,14.4,36.5,17.4,54.1,7.4c17.6-10,26.4-30.6,21.3-50.3C108.5,39.2,91,25.3,70.7,25V0z"
	/>
<path id="Path_10_1_" fill="#C36C36" d="M19.2,118.2c-4-4.2-7.4-8.8-10.2-13.8l21.9-12c1.8,3.1,3.9,5.9,6.3,8.5L19.2,118.2z"/>
<path id="Path_11_1_" fill="#25354F" d="M8.3,103.1C-3.3,81.6-2.7,55.5,9.7,34.4C22.2,13.3,44.8,0.2,69.3,0v25
	c-15.7,0.2-30.1,8.6-38.1,22.1c-8,13.5-8.4,30.2-1,44L8.3,103.1z"/>
</svg>
