<?xml version="1.0" encoding="utf-8"?>
<!-- Generator: Adobe Illustrator 25.0.1, SVG Export Plug-In . SVG Version: 6.00 Build 0)  -->
<svg version="1.1" id="Layer_1" xmlns="http://www.w3.org/2000/svg" xmlns:xlink="http://www.w3.org/1999/xlink" x="0px" y="0px"
	 viewBox="0 0 140 140" enable-background="new 0 0 140 140" xml:space="preserve">
<path id="Path_9" fill="#828FA7" d="M70.7,0c34.9,0.3,64.3,26.4,68.7,61.1c4.5,34.7-17.3,67.3-51,76.5c-33.7,9.2-69-7.9-82.8-40.1
	C-8.1,65.3,4,28,34,10l12.7,21.6c-19.2,11.6-26.8,35.6-18,56.2c8.9,20.6,31.5,31.5,53.2,25.6c21.6-5.9,35.6-26.8,32.8-49
	c-2.8-22.2-21.5-39-44-39.4V0z"/>
<path id="Path_10" fill="#C36C36" d="M35.1,9.3c5-2.9,10.3-5.1,15.8-6.7l6.6,24.1c-3.4,1-6.7,2.4-9.7,4.1L35.1,9.3z"/>
<path id="Path_11" fill="#25354F" d="M52.3,2.3c5.6-1.5,11.3-2.2,17-2.3v25c-3.5,0.1-7.1,0.5-10.5,1.4L52.3,2.3z"/>
</svg>
