<?xml version="1.0" encoding="utf-8"?>
<!-- Generator: Adobe Illustrator 25.0.1, SVG Export Plug-In . SVG Version: 6.00 Build 0)  -->
<svg version="1.1" id="Layer_1" xmlns="http://www.w3.org/2000/svg" xmlns:xlink="http://www.w3.org/1999/xlink" x="0px" y="0px"
	 viewBox="0 0 140 140" enable-background="new 0 0 140 140" xml:space="preserve">
<path id="Path_9" fill="#25354F" d="M70.7,0c25.8,0.3,49.4,14.7,61.4,37.6c12,22.9,10.3,50.5-4.2,71.8
	c-14.5,21.3-39.6,32.9-65.3,30.2l2.9-24.8c16.5,1.7,32.5-5.8,41.8-19.5c9.3-13.7,10.3-31.4,2.7-46c-7.6-14.7-22.7-24-39.2-24.2V0z"
	/>
<path id="Path_10" fill="#C36C36" d="M61.2,139.4c-26.6-3.4-48.9-21.7-57.5-47.1l23.8-7.8c5.5,16.1,19.7,27.8,36.7,30L61.2,139.4z"
	/>
<path id="Path_11" fill="#828FA7" d="M3.3,91.1c-6.7-21.2-2.9-44.2,10.1-62.2c13-18,33.8-28.7,56-28.9v25
	c-14.2,0.2-27.4,7.1-35.8,18.6C25.2,55.1,22.8,69.8,27,83.3L3.3,91.1z"/>
</svg>
