<svg xmlns="http://www.w3.org/2000/svg" width="139" height="136.669" viewBox="0 0 139 136.669">
  <g id="Group_2112" data-name="Group 2112" transform="translate(-125.713 -23.812)">
    <path id="Path_1291" data-name="Path 1291" d="M165.7,186.46l11.974-10.635,23.977-21.3,10.605-9.421,15.438,5.244,15.223,5.175,15.2,5.166,15.175,5.16A64.125,64.125,0,0,1,165.7,186.46Z" transform="translate(-15.509 -47.049)" fill="#828fa7"/>
    <path id="Path_1292" data-name="Path 1292" d="M197.723,23.812V98.189l-.557.493-9.09,8.077-21.819,19.389-10.893,9.678-10.907,9.685a72.9,72.9,0,0,1,53.267-121.7Z" transform="translate(0)" fill="#25354f"/>
    <path id="Path_1293" data-name="Path 1293" d="M309.995,101.928a66.527,66.527,0,0,1-4.159,23.244l-15.762-5.355-15.787-5.368-15.806-5.374-16.034-5.444v-.456l.557-.493V35.4c.152-.006.3-.006.455-.006A66.454,66.454,0,0,1,309.995,101.928Z" transform="translate(-45.282 -4.493)" fill="#c36c36"/>
    <circle id="Ellipse_319" data-name="Ellipse 319" cx="39.16" cy="39.16" r="39.16" transform="translate(158.087 56.35)" fill="#fff"/>
  </g>
</svg>
