<?xml version="1.0" encoding="utf-8"?>
<!-- Generator: Adobe Illustrator 25.1.0, SVG Export Plug-In . SVG Version: 6.00 Build 0)  -->
<svg version="1.1" id="Layer_1" xmlns="http://www.w3.org/2000/svg" xmlns:xlink="http://www.w3.org/1999/xlink" x="0px" y="0px"
	 viewBox="0 0 234.7 110" style="enable-background:new 0 0 234.7 110;" xml:space="preserve">
<style type="text/css">
	.st0{fill:#828FA7;}
	.st1{fill:#A95F26;}
	.st2{enable-background:new    ;}
	.st3{fill:#FFFFFF;}
</style>
<rect id="Rectangle_1966" x="21.3" y="40" class="st0" width="40" height="60"/>
<rect id="Rectangle_1967" x="72.3" y="30" class="st0" width="40" height="70"/>
<rect id="Rectangle_1968" x="122.3" y="20" class="st1" width="40" height="80"/>
<rect id="Rectangle_1969" x="173.3" y="10" class="st0" width="40" height="90"/>
<g class="st2">
	<path class="st3" d="M40.9,88v-8.6L39.2,80v-1.4l3.1-1.1V88H40.9z"/>
</g>
<g class="st2">
	<path class="st3" d="M89,87.4l4.2-5.1c0.5-0.6,0.8-1.2,0.8-1.7c0-1-0.8-1.6-1.9-1.6c-1,0-1.7,0.6-1.9,1.6l-1.4-0.3
		c0.1-0.8,0.5-1.5,1.1-2s1.3-0.8,2.2-0.8c0.9,0,1.7,0.3,2.3,0.9c0.6,0.6,0.9,1.3,0.9,2.2c0,0.9-0.4,1.8-1.1,2.7l-2.8,3.3h4V88h-6.5
		v-0.6H89z"/>
</g>
<g class="st2">
	<path class="st3" d="M139.3,78.9c0.6-1,1.7-1.6,3-1.5c0.8,0,1.5,0.4,2.1,0.9c0.6,0.6,0.8,1.2,0.8,2c0,0.2,0,0.4-0.1,0.6
		c-0.2,0.6-0.6,1.1-1.1,1.4c0.5,0.2,0.9,0.6,1.2,1.1c0.3,0.6,0.4,1.1,0.4,1.7c-0.1,0.9-0.5,1.6-1.2,2.2c-0.8,0.6-1.6,0.8-2.6,0.8
		c-1.4-0.1-2.5-1-3.1-2.2l1.3-0.7c0.3,0.8,1.1,1.4,2,1.4l0,0c0.6,0,1.1-0.1,1.6-0.4s0.7-0.8,0.7-1.3s-0.2-0.9-0.6-1.3
		c-0.4-0.4-0.9-0.6-1.4-0.6h-1.2v-1.4h1.2c0.7,0,1.3-0.5,1.4-1.2c0.1-0.4,0-0.8-0.2-1.1c-0.2-0.4-0.7-0.6-1.2-0.6
		c-0.8-0.1-1.4,0.3-1.8,0.9L139.3,78.9z"/>
</g>
<g class="st2">
	<path class="st3" d="M195.9,85.9V88h-1.4v-2.1h-5.4l5.8-8.3h1.1v6.9h1.5v1.4H195.9z M191.4,84.5h3v-4.4L191.4,84.5z"/>
</g>
</svg>
