<?xml version="1.0" encoding="utf-8"?>
<!-- Generator: Adobe Illustrator 25.0.0, SVG Export Plug-In . SVG Version: 6.00 Build 0)  -->
<svg version="1.1" id="Layer_1" xmlns="http://www.w3.org/2000/svg" xmlns:xlink="http://www.w3.org/1999/xlink" x="0px" y="0px"
	 viewBox="0 0 700 700" style="enable-background:new 0 0 700 700;" xml:space="preserve">
<style type="text/css">
	.st0{fill:#C36C36;}
</style>
<g transform="translate(0.000000,700.000000) scale(0.100000,-0.100000)">
	<path class="st0" d="M5008,6894c-2-1-37-5-78-8c-85-7-224-30-320-52c-36-9-73-17-83-19c-38-8-197-59-287-92
		c-544-199-1046-520-1461-933c-321-320-520-618-642-962c-14-38-24-68-22-68c1,0,32,39,68,88c88,118,239,276,371,389
		c393,336,1020,628,1591,739c22,5,42,9,45,9c3,1,28,5,55,10c28,4,57,9,65,10c9,2,43,6,75,10c33,4,68,9,78,11c95,17,462,23,627,10
		c271-21,546-83,785-178c266-105,532-267,733-446c40-35,75-62,78-59s7,61,8,130c5,256-38,451-151,682c-102,209-269,390-470,512
		c-115,71-304,145-426,169c-10,2-26,5-35,8c-63,20-253,38-414,40C5094,6896,5009,6896,5008,6894z"/>
	<path class="st0" d="M4619,5936c-2-2-42-6-89-10c-91-7-106-9-245-32c-115-19-220-41-315-66c-41-11-88-24-105-28
		c-153-40-455-159-629-247c-204-104-424-241-541-337c-27-22-56-45-64-51c-39-28-331-326-331-337c0-8,3-9,8-2c27,39,414,253,577,319
		c50,20,99,40,110,45c85,37,449,136,570,155c22,3,67,10,100,15s96,12,140,15c44,4,96,8,115,11c40,5,395,5,455-1
		c129-11,198-19,255-30c14-3,44-7,67-10c23-2,81-14,130-24c349-79,627-186,958-368c47-26,271-171,298-193c7-5,63-51,126-102
		c62-51,124-101,136-111l23-17l-3,132c-3,136-9,205-26,293c-5,28-11,60-13,72c-23,119-98,312-162,417c-86,141-196,261-264,290
		c-25,10-58,24-75,31c-137,58-428,130-610,151c-33,3-69,9-80,11C5113,5933,4624,5941,4619,5936z"/>
	<path class="st0" d="M1912,5095c-339-200-573-469-677-779c-33-99-35-126-19-233c87-550,350-1072,789-1562c94-105,339-331,443-408
		c50-38,53-40,87-68c17-14,33-25,37-25s13-6,20-12c25-24,106-78,116-78c6,0,12-4,14-8c10-26,354-212,510-276c119-49,334-118,406-131
		c18-3,60-12,94-20c76-17,68-10-56,54c-655,339-1177,911-1479,1622c-99,233-198,592-222,804c-3,28-8,68-11,90c-19,133-26,564-10,670
		c2,17,7,57,10,90c9,80,43,287,52,308C2026,5159,2011,5154,1912,5095z"/>
	<path class="st0" d="M1040,4973c-243-130-417-300-581-568c-49-80-108-233-128-335c-6-30-14-66-17-80c-9-44-11-276-3-339
		c43-309,162-596,377-906c399-576,1229-1117,2042-1331c144-38,342-76,470-91c139-15,510-8,620,12c8,1,39,6,68,10c61,9,61,14,1,21
		c-186,21-450,85-619,149c-299,115-618,303-913,538c-144,114-164,133-332,301c-550,553-877,1213-931,1881c-15,183-5,460,21,595
		c3,14,7,43,11,65c3,22,7,48,10,57c13,46,14,68,2,68C1131,5019,1087,4999,1040,4973z"/>
	<path class="st0" d="M5980,4630c0-6,7-24,15-40c39-76,139-381,151-460c3-19,9-48,14-65c31-109,45-278,45-560c0-249-5-356-24-490
		c-6-38-13-92-16-120c-4-27-11-68-15-90c-5-22-12-55-15-73c-3-19-23-102-44-185c-182-706-545-1305-1031-1696
		c-238-192-562-366-819-442l-44-13l39-33c22-18,42-33,46-33s24-11,44-25c128-87,374-171,563-192c117-14,303-8,421,13
		c61,11,191,55,269,92c483,227,875,812,1017,1516c8,38,14,71,19,101c3,17,7,41,10,55s7,52,11,85c3,33,7,62,9,65c10,16,20,245,20,455
		c0,214-6,368-20,475c-2,19-7,58-10,85c-45,375-193,867-341,1132c-19,35-35,66-36,70C6252,4293,5980,4658,5980,4630z"/>
	<path class="st0" d="M5941,4382c6-71,3-419-5-487c-25-205-30-235-57-365c-82-384-245-773-465-1112c-44-67-189-266-203-278
		c-3-3-28-32-56-65c-69-84-253-269-331-335c-37-30-72-60-79-67c-32-30-155-120-263-192c-218-146-437-258-662-341
		c-63-23-128-46-143-52l-28-11l58-35c147-89,356-175,516-212c208-48,472-44,624,10c43,15,115,60,143,90c3,3,34,30,70,60
		c304,258,571,634,753,1061c122,286,209,596,252,899c9,63,18,126,21,140c23,136,22,651-1,780c-6,36-16,97-20,125
		c-11,91-104,426-124,447C5938,4446,5937,4419,5941,4382z"/>
</g>
</svg>
