<?xml version="1.0" standalone="no"?>
<!DOCTYPE svg PUBLIC "-//W3C//DTD SVG 20010904//EN"
 "http://www.w3.org/TR/2001/REC-SVG-20010904/DTD/svg10.dtd">
<svg version="1.0" xmlns="http://www.w3.org/2000/svg"
 width="700.000000pt" height="700.000000pt" viewBox="0 0 700.000000 700.000000"
 preserveAspectRatio="xMidYMid meet">
<metadata>
Created by potrace 1.11, written by Peter Selinger 2001-2013
</metadata>
<g transform="translate(0.000000,700.000000) scale(0.100000,-0.100000)"
fill="#000000" stroke="none">
<path d="M5008 6894 c-2 -1 -37 -5 -78 -8 -85 -7 -224 -30 -320 -52 -36 -9
-73 -17 -83 -19 -38 -8 -197 -59 -287 -92 -544 -199 -1046 -520 -1461 -933
-321 -320 -520 -618 -642 -962 -14 -38 -24 -68 -22 -68 1 0 32 39 68 88 88
118 239 276 371 389 393 336 1020 628 1591 739 22 5 42 9 45 9 3 1 28 5 55 10
28 4 57 9 65 10 9 2 43 6 75 10 33 4 68 9 78 11 95 17 462 23 627 10 271 -21
546 -83 785 -178 266 -105 532 -267 733 -446 40 -35 75 -62 78 -59 3 3 7 61 8
130 5 256 -38 451 -151 682 -102 209 -269 390 -470 512 -115 71 -304 145 -426
169 -10 2 -26 5 -35 8 -63 20 -253 38 -414 40 -104 2 -189 2 -190 0z"/>
<path d="M4619 5936 c-2 -2 -42 -6 -89 -10 -91 -7 -106 -9 -245 -32 -115 -19
-220 -41 -315 -66 -41 -11 -88 -24 -105 -28 -153 -40 -455 -159 -629 -247
-204 -104 -424 -241 -541 -337 -27 -22 -56 -45 -64 -51 -39 -28 -331 -326
-331 -337 0 -8 3 -9 8 -2 27 39 414 253 577 319 50 20 99 40 110 45 85 37 449
136 570 155 22 3 67 10 100 15 33 5 96 12 140 15 44 4 96 8 115 11 40 5 395 5
455 -1 129 -11 198 -19 255 -30 14 -3 44 -7 67 -10 23 -2 81 -14 130 -24 349
-79 627 -186 958 -368 47 -26 271 -171 298 -193 7 -5 63 -51 126 -102 62 -51
124 -101 136 -111 l23 -17 -3 132 c-3 136 -9 205 -26 293 -5 28 -11 60 -13 72
-23 119 -98 312 -162 417 -86 141 -196 261 -264 290 -25 10 -58 24 -75 31
-137 58 -428 130 -610 151 -33 3 -69 9 -80 11 -22 6 -511 14 -516 9z"/>
<path d="M1912 5095 c-339 -200 -573 -469 -677 -779 -33 -99 -35 -126 -19
-233 87 -550 350 -1072 789 -1562 94 -105 339 -331 443 -408 50 -38 53 -40 87
-68 17 -14 33 -25 37 -25 4 0 13 -6 20 -12 25 -24 106 -78 116 -78 6 0 12 -4
14 -8 10 -26 354 -212 510 -276 119 -49 334 -118 406 -131 18 -3 60 -12 94
-20 76 -17 68 -10 -56 54 -655 339 -1177 911 -1479 1622 -99 233 -198 592
-222 804 -3 28 -8 68 -11 90 -19 133 -26 564 -10 670 2 17 7 57 10 90 9 80 43
287 52 308 10 26 -5 21 -104 -38z"/>
<path d="M1040 4973 c-243 -130 -417 -300 -581 -568 -49 -80 -108 -233 -128
-335 -6 -30 -14 -66 -17 -80 -9 -44 -11 -276 -3 -339 43 -309 162 -596 377
-906 399 -576 1229 -1117 2042 -1331 144 -38 342 -76 470 -91 139 -15 510 -8
620 12 8 1 39 6 68 10 61 9 61 14 1 21 -186 21 -450 85 -619 149 -299 115
-618 303 -913 538 -144 114 -164 133 -332 301 -550 553 -877 1213 -931 1881
-15 183 -5 460 21 595 3 14 7 43 11 65 3 22 7 48 10 57 13 46 14 68 2 68 -7
-1 -51 -21 -98 -47z"/>
<path d="M5980 4630 c0 -6 7 -24 15 -40 39 -76 139 -381 151 -460 3 -19 9 -48
14 -65 31 -109 45 -278 45 -560 0 -249 -5 -356 -24 -490 -6 -38 -13 -92 -16
-120 -4 -27 -11 -68 -15 -90 -5 -22 -12 -55 -15 -73 -3 -19 -23 -102 -44 -185
-182 -706 -545 -1305 -1031 -1696 -238 -192 -562 -366 -819 -442 l-44 -13 39
-33 c22 -18 42 -33 46 -33 4 0 24 -11 44 -25 128 -87 374 -171 563 -192 117
-14 303 -8 421 13 61 11 191 55 269 92 483 227 875 812 1017 1516 8 38 14 71
19 101 3 17 7 41 10 55 3 14 7 52 11 85 3 33 7 62 9 65 10 16 20 245 20 455 0
214 -6 368 -20 475 -2 19 -7 58 -10 85 -45 375 -193 867 -341 1132 -19 35 -35
66 -36 70 -6 36 -278 401 -278 373z"/>
<path d="M5941 4382 c6 -71 3 -419 -5 -487 -25 -205 -30 -235 -57 -365 -82
-384 -245 -773 -465 -1112 -44 -67 -189 -266 -203 -278 -3 -3 -28 -32 -56 -65
-69 -84 -253 -269 -331 -335 -37 -30 -72 -60 -79 -67 -32 -30 -155 -120 -263
-192 -218 -146 -437 -258 -662 -341 -63 -23 -128 -46 -143 -52 l-28 -11 58
-35 c147 -89 356 -175 516 -212 208 -48 472 -44 624 10 43 15 115 60 143 90 3
3 34 30 70 60 304 258 571 634 753 1061 122 286 209 596 252 899 9 63 18 126
21 140 23 136 22 651 -1 780 -6 36 -16 97 -20 125 -11 91 -104 426 -124 447
-3 4 -4 -23 0 -60z"/>
</g>
</svg>
