<svg viewBox="0 0 32 32" height="32" width="32" xmlns="http://www.w3.org/2000/svg">,,,,,,,,,,<g transform="matrix(1.3333333333333333,0,0,1.3333333333333333,0,0)"><path d="M10 13.426L0.5 13.426 0.5 18.926" fill="none" stroke-linecap="round" stroke-linejoin="round"></path><path d="M0.5 13.926L0.5 8.426 13 8.426" fill="none" stroke-linecap="round" stroke-linejoin="round"></path><path d="M0.5 8.426L0.5 3.426 11.5 3.426 11.5 8.426" fill="none" stroke-linecap="round" stroke-linejoin="round"></path><path d="M4.5 3.426L4.5 8.426" fill="none" stroke-linecap="round" stroke-linejoin="round"></path><path d="M8.5 8.426L8.5 13.426" fill="none" stroke-linecap="round" stroke-linejoin="round"></path><path d="M4.5 13.426L4.5 18.426" fill="none" stroke-linecap="round" stroke-linejoin="round"></path><path d="M16.5 18.926L16.5 23.426" fill="none" stroke-linecap="round" stroke-linejoin="round"></path><path d="M17,6.571a1.5,1.5,0,0,0,2.117.133L22.981,3.2A1.5,1.5,0,0,0,21,.949l-3.86,3.505A1.5,1.5,0,0,0,17,6.571Z" fill="none" stroke-linecap="round" stroke-linejoin="round"></path><path d="M17.016,6.582,19.891,9.9a.508.508,0,0,1-.047.709l-3.375,2.977" fill="none" stroke-linecap="round" stroke-linejoin="round"></path><path d="M14.031,10.3a1.459,1.459,0,0,1,2.5-.5l3.5,3.5a1.451,1.451,0,0,1-.5,2.5L11,19.115c-.256.1-.384-.028-.284-.285Z" fill="none" stroke-linecap="round" stroke-linejoin="round"></path><path d="M18.516 18.426L23.5 18.426 23.5 23.426 0.5 23.426 0.5 18.426 8 18.426 8.5 18.426 8.5 23.426" fill="none" stroke-linecap="round" stroke-linejoin="round"></path></g></svg>